<?xml version="1.0" encoding="utf-8"?>

<!-- The icon can be used freely in both personal and commercial projects with no attribution required, but always appreciated. 
You may NOT sub-license, resell, rent, redistribute or otherwise transfer the icon without express written permission from iconmonstr.com -->

<!DOCTYPE svg PUBLIC "-//W3C//DTD SVG 1.1//EN" "http://www.w3.org/Graphics/SVG/1.1/DTD/svg11.dtd">
<svg version="1.1" xmlns="http://www.w3.org/2000/svg" xmlns:xlink="http://www.w3.org/1999/xlink" x="0px" y="0px"
	 width="512px" height="512px" viewBox="0 0 512 512" enable-background="new 0 0 512 512" xml:space="preserve">
<path id="target-4-icon" d="M462,140.879l-74.233,41.61c-20.558-4.853-42.188-1.814-60.614,8.514l-77.688,43.546
	c0.906,20.31-15.274,36.761-35.072,36.761c-19.392,0-35.113-15.723-35.113-35.113c0-19.394,15.722-35.113,35.113-35.113
	c7.607,0,14.644,2.428,20.394,6.538l77.477-43.428c18.347-10.285,32.249-27.077,38.893-47.262l74.13-41.552l-13.255,51.427
	L462,140.879z M375.709,205.636c-11.112-1.378-21.947,0.415-31.595,4.729c8.878,43.062-3.681,88.333-36.05,120.701
	c-25.021,25.021-58.287,38.8-93.672,38.8c-35.384,0-68.65-13.779-93.672-38.8c-25.021-25.021-38.8-58.288-38.8-93.673
	c0-35.383,13.779-68.649,38.801-93.671s58.288-38.802,93.671-38.802c33.551,0,65.193,12.397,89.714,35.014
	c9.027-6.075,16.166-14.469,20.716-24.319C295.64,89.136,256.9,73,214.393,73C123.604,73,50,146.604,50,237.394
	c0,48.688,21.171,92.422,54.801,122.522l-23.016,71.311c-1.886,5.839,5.321,10.355,9.756,6.094l53.06-51.054
	c44.499,20.898,95.981,20.497,139.539,0.047l53.011,51.007c4.435,4.262,11.642-0.254,9.756-6.094l-22.997-71.258
	C365.22,322.968,387.46,265.664,375.709,205.636z M214.393,169.692c9.596,0,18.725,2.019,27.003,5.634l32.206-18.052
	c-16.554-12.254-37.034-19.504-59.209-19.504c-55.018,0-99.621,44.605-99.621,99.623c0,55.022,44.604,99.621,99.621,99.621
	c58.902,0,105.09-50.886,99.111-109.772l-31.86,17.859c-3.84,33.711-32.527,59.992-67.251,59.992c-37.33,0-67.7-30.371-67.7-67.7
	C146.692,200.063,177.062,169.692,214.393,169.692z"/>
</svg>
